# xmcd
#
# Track frame offsets:
# 150
# 20172
# 38722
# 62170
# 78605
# 96920
# 114550
# 133170
# 150117
# 167800
# 189830
# 206610
# 228425
# 246087
# 266295
#
# Disc length: 3802 seconds
#
#
# Revision: 0
# Processed by: cddbd v1.5.2PL0 Copyright (c) Steve Scherf et al.
# Submitted via: FreeRIP 2.951 
#
DISCID=c30ed80f
DTITLE=Mauricio Matar - 
DYEAR=1900
DGENRE=Ballad
TTITLE0=Ainda Amo Você
TTITLE1=Moça
TTITLE2=Nossa Historia
TTITLE3=Navegante do Amor
TTITLE4=Pra Ficar Contigo
TTITLE5=Tou Morrendo de Saudades
TTITLE6=Sonho de Amor
TTITLE7=Minha Estrela
TTITLE8=Como Vai Você
TTITLE9=Morena
TTITLE10=Impossivel Te Esquecer
TTITLE11=Dê-Me
TTITLE12=Coração Me Leva
TTITLE13=Roubar Você Pra Mim
TTITLE14=Menina Princesa
EXTD=
EXTT0=
EXTT1=
EXTT2=
EXTT3=
EXTT4=
EXTT5=
EXTT6=
EXTT7=
EXTT8=
EXTT9=
EXTT10=
EXTT11=
EXTT12=
EXTT13=
EXTT14=
PLAYORDER=
